<svg width="24" height="24" viewBox="0 0 24 24" fill="none" xmlns="http://www.w3.org/2000/svg">
<path d="M0 12C0 5.37258 5.37258 0 12 0C18.6274 0 24 5.37258 24 12C24 18.6274 18.6274 24 12 24C5.37258 24 0 18.6274 0 12Z" fill="#080808"/>
<g clip-path="url(#clip0_5_62)">
<path d="M8.26081 12.0624C8.26141 12.0866 8.26657 12.1097 8.27629 12.1319C8.27941 12.1393 8.28181 12.1465 8.28613 12.1534C8.30113 12.1784 8.32021 12.2014 8.34709 12.2177C8.34745 12.2179 8.34817 12.2179 8.34853 12.2182C8.34901 12.2184 8.34913 12.219 8.34961 12.2192L11.9203 14.3114C11.9231 14.3131 11.9263 14.3123 11.9293 14.314C11.955 14.3272 11.9833 14.337 12.0147 14.337C12.046 14.337 12.0743 14.3272 12.1002 14.3135C12.1035 14.3122 12.1072 14.3126 12.1103 14.311L15.6175 12.2184C15.645 12.2021 15.6642 12.1787 15.6798 12.1531C15.684 12.146 15.6867 12.1394 15.6897 12.1319C15.6995 12.1096 15.7047 12.0866 15.7055 12.0624C15.7055 12.0572 15.7089 12.053 15.7085 12.0481C15.7085 12.0458 15.7067 12.0443 15.7062 12.042C15.7041 12.0145 15.6972 11.9876 15.6822 11.9624L12.1749 6.09096C12.1735 6.08856 12.1713 6.0876 12.1697 6.08532C12.1655 6.0786 12.1603 6.07332 12.1552 6.06732C12.1487 6.05976 12.1421 6.05304 12.1345 6.04632C12.1288 6.04164 12.1236 6.03648 12.1175 6.03264C12.1151 6.03096 12.1139 6.02856 12.1115 6.02712C12.1074 6.0246 12.103 6.0246 12.0989 6.02256C12.0907 6.01824 12.0826 6.01512 12.0736 6.012C12.0661 6.00936 12.0587 6.00672 12.0507 6.00516C12.0427 6.00336 12.0351 6.003 12.0271 6.00264C12.0228 6.00216 12.019 6 12.0147 6C12.0103 6 12.007 6.00216 12.0027 6.0024C11.995 6.00312 11.9878 6.00324 11.9803 6.0048C11.9718 6.00636 11.964 6.00912 11.9556 6.01188C11.9469 6.01488 11.9387 6.01812 11.9305 6.02244C11.9268 6.02448 11.9226 6.02448 11.9189 6.02652C11.9167 6.02784 11.9154 6.03012 11.9134 6.03144C11.9068 6.03576 11.9011 6.04104 11.8949 6.04644C11.8875 6.05292 11.8807 6.05928 11.8743 6.06684C11.8696 6.0726 11.8644 6.07776 11.8606 6.08388C11.8588 6.08628 11.8565 6.08748 11.8549 6.08988L8.28433 11.9615C8.26885 11.9867 8.26201 12.0142 8.25961 12.0421C8.25937 12.0445 8.25769 12.0461 8.25745 12.0486C8.25733 12.0532 8.26057 12.0575 8.26081 12.0624ZM12.2014 6.86292L15.0534 11.6378L12.2014 10.3296V6.86292ZM11.8281 10.3285L8.91673 11.6402L11.8281 6.85284V10.3285ZM11.8281 10.7382V13.8244L8.85025 12.0798L11.8281 10.7382ZM12.2014 13.8214V10.7401L15.1212 12.0798L12.2014 13.8214Z" fill="#FAFAFA"/>
<path d="M15.6929 12.7003C15.6337 12.6355 15.5363 12.6227 15.4607 12.666L12.015 14.7004L8.57062 12.666C8.49538 12.6222 8.39794 12.6355 8.33806 12.7003C8.27842 12.7656 8.27218 12.8628 8.32318 12.9349L11.8626 17.9215C11.8653 17.9254 11.8699 17.9266 11.8727 17.9301C11.88 17.9389 11.8873 17.9467 11.8958 17.9541C11.8999 17.9574 11.9023 17.9626 11.9067 17.9656C11.9102 17.9681 11.9147 17.967 11.9184 17.9694C11.9244 17.9729 11.9295 17.9779 11.9361 17.9812C11.9599 17.9927 11.9862 18 12.0143 18C12.0144 18 12.0144 18 12.0146 18C12.0146 18 12.0146 18 12.0149 18C12.0151 18 12.0151 18 12.0151 18C12.0152 18 12.0152 18 12.0155 18C12.0435 18 12.0697 17.9926 12.0936 17.9812C12.1002 17.9781 12.1053 17.973 12.1113 17.9694C12.1149 17.9669 12.1194 17.9681 12.123 17.9656C12.1274 17.9627 12.1298 17.9575 12.1339 17.9541C12.1424 17.9466 12.1499 17.9389 12.1569 17.9301C12.1597 17.9266 12.1644 17.9254 12.167 17.9215L15.7077 12.9349C15.759 12.8628 15.7526 12.7656 15.6929 12.7003ZM11.8284 15.0243V17.2277L9.13486 13.4331L11.8284 15.0243ZM12.2017 17.2277V15.0243L14.8963 13.4331L12.2017 17.2277Z" fill="#FAFAFA"/>
</g>
<defs>
<clipPath id="clip0_5_62">
<rect width="12" height="12" fill="white" transform="translate(6 6)"/>
</clipPath>
</defs>
</svg>
