<svg width="24" height="24" viewBox="0 0 24 24" fill="none" xmlns="http://www.w3.org/2000/svg">
<path fill-rule="evenodd" clip-rule="evenodd" d="M12.2871 2.65798C12.1987 2.62131 12.1017 2.60107 12 2.60107C11.8983 2.60107 11.8013 2.62131 11.7129 2.65798C11.6245 2.69458 11.5416 2.74884 11.4697 2.82074L7.46967 6.82074C7.17678 7.11364 7.17678 7.58851 7.46967 7.8814C7.76256 8.1743 8.23744 8.1743 8.53033 7.8814L11.25 5.16173L11.25 15.5751C11.25 15.9893 11.5858 16.3251 12 16.3251C12.4142 16.3251 12.75 15.9893 12.75 15.5751L12.75 5.16173L15.4697 7.8814C15.7626 8.1743 16.2374 8.1743 16.5303 7.8814C16.8232 7.58851 16.8232 7.11364 16.5303 6.82074L12.5303 2.82074C12.4584 2.74884 12.3755 2.69458 12.2871 2.65798ZM5.22015 10.5142C5.63437 10.5142 5.97015 10.8499 5.97015 11.2642V18.772C5.97015 19.0942 6.08643 19.3897 6.27323 19.5966C6.45774 19.8009 6.69061 19.899 6.91511 19.899H17.0849C17.3094 19.899 17.5423 19.8009 17.7268 19.5966C17.9136 19.3897 18.0298 19.0942 18.0298 18.772V11.2642C18.0298 10.8499 18.3656 10.5142 18.7798 10.5142C19.1941 10.5142 19.5298 10.8499 19.5298 11.2642V18.772C19.5298 19.4455 19.289 20.1048 18.84 20.6019C18.3888 21.1016 17.7594 21.399 17.0849 21.399H6.91511C6.24055 21.399 5.61119 21.1016 5.15997 20.6019C4.71103 20.1048 4.47015 19.4455 4.47015 18.772V11.2642C4.47015 10.8499 4.80594 10.5142 5.22015 10.5142Z" fill="#FAFAFA"/>
</svg>
